<?xml version="1.0" encoding="utf-8"?>
<!-- Generator: Adobe Illustrator 19.0.0, SVG Export Plug-In . SVG Version: 6.00 Build 0)  -->
<svg version="1.1" id="Capa_1" xmlns="http://www.w3.org/2000/svg" xmlns:xlink="http://www.w3.org/1999/xlink" x="0px" y="0px"
	 viewBox="-79 248 682.1 99.3" style="enable-background:new -79 248 682.1 99.3;" xml:space="preserve">
<style type="text/css">
	.st0{fill:#FFFFFF;}
</style>
<g id="XMLID_448_">
	<g id="XMLID_277_">
		<g id="XMLID_312_">
			<path id="XMLID_313_" class="st0" d="M465.3,283.6c0,18.2-11.8,28.8-32.3,28.8h-20.4v27.8H403v-84.4h29.9
				C453.4,255.8,465.3,266,465.3,283.6z M456.1,283.9c0-12.7-8.6-19.3-23.6-19.3h-20.1v39.1h20.1
				C447.5,303.6,456.1,296.9,456.1,283.9z"/>
		</g>
		<g id="XMLID_303_">
			<path id="XMLID_309_" class="st0" d="M516.7,287.1c0,13.2-10.6,23.3-24.4,23.3c-13.8,0-24.4-10.1-24.4-23.3
				c0-13.2,10.6-23.2,24.4-23.2C506.1,263.9,516.7,274,516.7,287.1z M476.9,287.1c0,8.6,7.1,15.4,15.6,15.4
				c8.4,0,15.3-6.8,15.3-15.4s-6.9-15.3-15.3-15.3C483.9,271.8,476.9,278.5,476.9,287.1z"/>
			<path id="XMLID_307_" class="st0" d="M529.3,264.2v37.9h19.8v7.9h-28.5v-45.8H529.3z"/>
			<path id="XMLID_304_" class="st0" d="M597.3,287.1c0,13.2-10.6,23.3-24.4,23.3c-13.8,0-24.4-10.1-24.4-23.3
				c0-13.2,10.6-23.2,24.4-23.2S597.3,274,597.3,287.1z M557.4,287.1c0,8.6,7.1,15.4,15.6,15.4c8.4,0,15.3-6.8,15.3-15.4
				s-6.9-15.3-15.3-15.3C564.5,271.8,557.4,278.5,557.4,287.1z"/>
		</g>
		<path id="XMLID_300_" class="st0" d="M219,300.1h-22.3l-4,9.6h-9.1l20-45.6h9.1l19.8,45.6h-9.4L219,300.1z M215.9,292.6l-8-19.2
			l-8.1,19.2H215.9z"/>
		<path id="XMLID_297_" class="st0" d="M262.7,309.8l-7.9-13.5c-0.5,0.1-1,0.1-1.6,0.1h-10.3v13.4h-8.7v-45.7h19
			c11.8,0,18.5,5.7,18.5,15.7c0,7.2-3.2,12.3-9.1,14.8l10,15.1h-9.9V309.8z M242.8,288.7h10.3c6.5,0,10.2-2.8,10.2-8.5
			c0-5.6-3.7-8.3-10.2-8.3h-10.3V288.7z"/>
		<path id="XMLID_295_" class="st0" d="M286.1,264.1v37.8h19.7v7.9h-28.4v-45.7H286.1z"/>
		<path id="XMLID_292_" class="st0" d="M353.7,287c0,13.1-10.6,23.2-24.3,23.2c-13.8,0-24.3-10.1-24.3-23.2
			c0-13.2,10.6-23.1,24.3-23.1C343.2,263.9,353.7,273.9,353.7,287z M314,287c0,8.6,7.1,15.4,15.5,15.4c8.3,0,15.3-6.8,15.3-15.4
			c0-8.6-6.9-15.3-15.3-15.3S314,278.4,314,287z"/>
		<path id="XMLID_290_" class="st0" d="M372.5,271.7c-4.1,0-6.8,1.5-6.8,4.3c0,9.3,24.5,4.2,24.4,20.6c0,8.5-7.4,13.5-17.5,13.5
			c-7.3,0-14.4-2.9-19.3-7.3l3.6-7.4c4.7,4.2,10.9,6.7,15.8,6.7s7.8-1.8,7.8-5c0-9.5-24.5-4.1-24.5-20.3c0-8,6.9-13,17.1-13
			c6.1,0,12.1,2,16.5,4.8l-3.5,7.6C381.3,273.2,376,271.7,372.5,271.7z"/>
		<path id="XMLID_289_" class="st0" d="M191.2,322.3c-6.6,5.7-16.2,9.2-25.2,9.2c-20.2,0-34-15.3-34-35c0-19.8,13.5-33.6,33.7-33.6
			c9.8,0,19.3,4.2,26.2,10.9l4-9.2c-8.3-6.9-19.2-11.1-30.4-11.1c-25.9,0-44,17.8-44,42.9c0,25.3,18.3,44.6,44.1,44.6
			c9,0,19.1-2.8,25.7-7.4v-11.3H191.2z"/>
		<g id="XMLID_281_">
			<path id="XMLID_287_" class="st0" d="M0,302.2c6.9,0,11.3-4.3,11.3-11.6V264H20v26.6c0,12-7.6,19.4-20,19.4
				c-12.5,0-20.3-7.4-20.3-19.4V264h8.7v26.6C-11.5,297.9-6.9,302.2,0,302.2z"/>
			<path id="XMLID_284_" class="st0" d="M54.8,300H32.5l-4,9.6h-9.1l20-45.6h9.1l19.8,45.6h-9.4L54.8,300z M51.7,292.5l-8-19.2
				l-8.1,19.2H51.7z"/>
			<path id="XMLID_282_" class="st0" d="M78.2,264l23.5,31.2V264h8.5v45.6h-8.3l-23.5-31.2v31.2h-8.5V264H78.2z"/>
		</g>
		<g id="XMLID_278_">
			<path id="XMLID_279_" class="st0" d="M-50.5,340.2c-9.1,0-17.8-3.2-22.5-7.9l4.7-7.5c4.2,3.4,11.6,5.9,17.8,5.9
				c6.1,0,13.6-3.6,13.6-9v-57h-27.4v-8.9h37.5v66.1C-26.8,333.3-39.5,340.2-50.5,340.2z"/>
		</g>
	</g>
</g>
</svg>
